<svg width="782" height="779" viewBox="0 0 782 779" fill="none" xmlns="http://www.w3.org/2000/svg">
<rect x="112" y="111" width="558" height="558" rx="279" fill="#212121"/>
<rect x="204.5" y="203.5" width="373" height="373" rx="186.5" stroke="white" stroke-dasharray="10 10"/>
<path d="M253.182 230.69L221.76 196.352L242.781 177.719L246.157 181.408L229.353 196.302L239.97 207.904L255.686 193.975L259.061 197.664L243.346 211.593L254.024 223.263L271.101 208.127L274.476 211.816L253.182 230.69Z" fill="white"/>
<path d="M268.96 160.46L289.158 171.902L289.482 171.738L290.684 149.431L296.601 146.426L294.966 173.333L319.431 186.988L313.514 189.993L293.495 178.868L293.171 179.032L291.79 201.022L285.873 204.027L287.833 176.955L263.043 163.465L268.96 160.46Z" fill="white"/>
<path d="M333.223 182.424L320.363 137.69L335.713 134.265C339.277 133.469 342.372 133.453 344.999 134.215C347.636 134.959 349.809 136.279 351.519 138.175C353.229 140.072 354.462 142.338 355.22 144.974C355.978 147.609 356.119 150.127 355.645 152.526C355.185 154.922 354.008 157.013 352.113 158.8C350.215 160.571 347.499 161.852 343.964 162.64L332.962 165.096L331.581 160.29L342.406 157.875C344.846 157.33 346.686 156.478 347.926 155.318C349.166 154.158 349.916 152.797 350.175 151.236C350.445 149.657 350.323 147.972 349.808 146.181C349.293 144.39 348.492 142.864 347.406 141.604C346.335 140.34 344.937 139.474 343.213 139.006C341.485 138.524 339.386 138.559 336.917 139.11L327.246 141.268L338.724 181.196L333.223 182.424Z" fill="white"/>
<path d="M384.575 174.24L382.686 127.733L388.321 127.865L390.007 169.377L411.637 169.885L411.84 174.881L384.575 174.24Z" fill="white"/>
<path d="M470.303 164.2C469.298 169.006 467.572 172.931 465.127 175.976C462.681 179.022 459.766 181.097 456.382 182.203C452.997 183.309 449.386 183.353 445.55 182.335C441.713 181.317 438.499 179.462 435.908 176.772C433.318 174.081 431.532 170.758 430.55 166.803C429.569 162.849 429.581 158.469 430.586 153.664C431.591 148.859 433.316 144.933 435.761 141.888C438.207 138.842 441.122 136.767 444.506 135.661C447.891 134.555 451.502 134.511 455.339 135.529C459.176 136.547 462.389 138.402 464.98 141.093C467.571 143.784 469.356 147.106 470.338 151.061C471.319 155.015 471.308 159.395 470.303 164.2ZM465.03 162.802C465.856 158.857 465.9 155.354 465.164 152.295C464.443 149.239 463.123 146.72 461.203 144.74C459.298 142.763 456.983 141.413 454.259 140.69C451.535 139.968 448.922 140.01 446.419 140.818C443.931 141.629 441.751 143.219 439.88 145.587C438.024 147.959 436.683 151.117 435.858 155.062C435.033 159.007 434.981 162.508 435.702 165.564C436.438 168.623 437.758 171.142 439.663 173.119C441.583 175.099 443.905 176.451 446.629 177.174C449.353 177.896 451.959 177.852 454.447 177.041C456.95 176.233 459.13 174.644 460.986 172.272C462.857 169.903 464.205 166.747 465.03 162.802Z" fill="white"/>
<path d="M478.082 192.432L498.723 150.713L512.603 158.108C515.813 159.817 518.172 161.778 519.68 163.988C521.195 166.185 521.97 168.512 522.006 170.967C522.041 173.423 521.451 175.879 520.235 178.338C519.019 180.796 517.445 182.712 515.515 184.086C513.585 185.46 511.328 186.145 508.745 186.141C506.168 186.124 503.288 185.268 500.106 183.573L488.873 177.589L491.13 173.026L502.203 178.924C504.396 180.093 506.322 180.707 507.982 180.767C509.655 180.835 511.088 180.432 512.281 179.557C513.494 178.676 514.514 177.401 515.34 175.73C516.167 174.06 516.582 172.436 516.585 170.859C516.588 169.282 516.082 167.794 515.067 166.396C514.059 164.984 512.445 163.686 510.226 162.504L501.48 157.845L483.056 195.082L478.082 192.432ZM506.691 183.992L507.528 208.118L501.751 205.041L501.074 181L506.691 183.992Z" fill="white"/>
<path d="M522.275 219.272L552.846 184.174L574.028 202.624L570.744 206.394L553.812 191.646L543.483 203.505L559.318 217.298L556.034 221.068L540.199 207.276L529.809 219.204L547.016 234.191L543.732 237.961L522.275 219.272Z" fill="white"/>
<path d="M626.183 273.009L628.784 279.213L598.526 306.826L598.737 307.329L641.227 308.892L643.829 315.096L600.008 330.787L597.969 325.924L631.263 314.003L631.087 313.583L592.169 312.091L590.201 307.396L617.87 282.06L617.694 281.641L584.401 293.563L582.362 288.7L626.183 273.009Z" fill="white"/>
<path d="M602.227 343.281L601.278 337.448L650.347 349.805L651.281 355.548L607.697 376.93L606.749 371.097L643.514 353.57L643.456 353.211L602.227 343.281ZM620.673 343.672L624.495 367.181L619.519 367.666L615.696 344.156L620.673 343.672Z" fill="white"/>
<path d="M607.181 393.325L653.256 399.924L652.795 405.541L611.669 399.652L609.9 421.216L604.95 420.507L607.181 393.325Z" fill="white"/>
<path d="M640.634 450.009L645.286 451.841L633.904 484.842L629.251 483.011L634.024 469.174L595.365 453.959L597.203 448.63L635.861 463.846L640.634 450.009Z" fill="white"/>
<path d="M582.923 483.053L586.199 478.136L615.054 518.764L611.827 523.606L564.02 511.424L567.296 506.506L607.276 517.159L607.477 516.856L582.923 483.053ZM596.686 495.184L583.479 515.005L579.362 512.168L592.569 492.347L596.686 495.184Z" fill="white"/>
<path d="M529.17 548.186L560.558 582.555L539.514 601.162L536.142 597.47L552.964 582.597L542.358 570.984L526.626 584.894L523.254 581.202L538.986 567.292L528.319 555.612L511.225 570.726L507.853 567.034L529.17 548.186Z" fill="white"/>
<path d="M513.95 619.118L493.746 607.652L493.422 607.816L492.204 630.104L486.281 633.097L487.935 606.213L463.462 592.529L469.385 589.536L489.411 600.685L489.735 600.521L491.131 578.55L497.054 575.558L495.076 602.605L519.874 616.126L513.95 619.118Z" fill="white"/>
<path d="M449.589 597.053L462.453 641.786L447.095 645.175C443.53 645.962 440.433 645.972 437.805 645.205C435.166 644.455 432.992 643.131 431.281 641.232C429.571 639.333 428.336 637.066 427.578 634.43C426.821 631.795 426.679 629.279 427.154 626.882C427.615 624.488 428.792 622.401 430.687 620.62C432.587 618.854 435.305 617.58 438.841 616.8L449.849 614.371L451.231 619.176L440.4 621.566C437.959 622.105 436.118 622.953 434.877 624.109C433.636 625.266 432.886 626.624 432.626 628.183C432.356 629.76 432.479 631.444 432.994 633.235C433.509 635.026 434.31 636.553 435.396 637.815C436.468 639.081 437.867 639.949 439.591 640.42C441.32 640.906 443.42 640.876 445.891 640.331L455.567 638.195L444.085 598.268L449.589 597.053Z" fill="white"/>
<path d="M398.126 605.082L400.025 651.589L394.39 651.443L392.695 609.932L371.066 609.372L370.862 604.376L398.126 605.082Z" fill="white"/>
<path d="M312.325 614.884C313.33 610.079 315.054 606.156 317.499 603.114C319.943 600.072 322.857 598.002 326.24 596.902C329.622 595.803 333.231 595.766 337.066 596.792C340.901 597.818 344.113 599.68 346.701 602.377C349.29 605.075 351.075 608.403 352.056 612.361C353.036 616.319 353.024 620.701 352.019 625.506C351.014 630.311 349.29 634.235 346.845 637.276C344.401 640.318 341.487 642.389 338.104 643.488C334.722 644.588 331.113 644.624 327.278 643.598C323.443 642.572 320.231 640.71 317.642 638.013C315.054 635.316 313.269 631.988 312.288 628.03C311.308 624.071 311.32 619.69 312.325 614.884ZM317.594 616.294C316.769 620.239 316.724 623.743 317.459 626.806C318.18 629.864 319.499 632.386 321.418 634.372C323.322 636.354 325.635 637.709 328.357 638.437C331.08 639.165 333.692 639.128 336.193 638.326C338.68 637.519 340.859 635.933 342.729 633.568C344.585 631.198 345.925 628.041 346.75 624.096C347.575 620.151 347.627 616.649 346.907 613.591C346.172 610.528 344.852 608.006 342.948 606.024C341.03 604.039 338.709 602.682 335.987 601.953C333.264 601.225 330.66 601.264 328.173 602.071C325.671 602.873 323.492 604.459 321.637 606.829C319.766 609.194 318.419 612.349 317.594 616.294Z" fill="white"/>
<path d="M304.453 586.559L283.794 628.268L269.926 620.85C266.719 619.135 264.363 617.171 262.857 614.957C261.344 612.756 260.571 610.428 260.537 607.971C260.503 605.514 261.095 603.057 262.312 600.6C263.53 598.142 265.103 596.228 267.034 594.856C268.964 593.484 271.22 592.801 273.802 592.808C276.378 592.829 279.255 593.69 282.435 595.391L293.658 601.393L291.398 605.955L280.336 600.038C278.145 598.866 276.22 598.249 274.561 598.186C272.888 598.116 271.456 598.518 270.263 599.391C269.05 600.27 268.03 601.545 267.202 603.215C266.375 604.885 265.96 606.509 265.955 608.087C265.951 609.665 266.456 611.154 267.469 612.555C268.475 613.969 270.087 615.269 272.305 616.455L281.043 621.129L299.483 583.9L304.453 586.559ZM275.854 594.962L275.034 570.823L280.805 573.91L281.465 597.963L275.854 594.962Z" fill="white"/>
<path d="M260.199 559.566L229.59 594.631L208.428 576.158L211.716 572.391L228.632 587.158L238.975 575.31L223.154 561.5L226.442 557.733L242.263 571.543L252.665 559.626L235.475 544.621L238.763 540.854L260.199 559.566Z" fill="white"/>
<path d="M156.123 505.502L153.522 499.297L183.81 471.765L183.599 471.262L141.08 469.618L138.48 463.414L182.335 447.819L184.374 452.682L151.054 464.53L151.229 464.949L190.173 466.516L192.141 471.211L164.444 496.473L164.62 496.893L197.94 485.045L199.978 489.907L156.123 505.502Z" fill="white"/>
<path d="M180.046 435.234L180.995 441.066L131.912 428.598L130.978 422.855L174.569 401.586L175.518 407.418L138.746 424.851L138.805 425.21L180.046 435.234ZM161.595 434.799L157.768 411.291L162.746 410.818L166.573 434.327L161.595 434.799Z" fill="white"/>
<path d="M175.038 385.105L128.978 378.401L129.438 372.784L170.55 378.768L172.316 357.203L177.264 357.924L175.038 385.105Z" fill="white"/>
<path d="M141.591 328.278L136.942 326.438L148.33 293.439L152.979 295.279L148.205 309.115L186.834 324.405L184.995 329.733L146.366 314.443L141.591 328.278Z" fill="white"/>
<path d="M200.114 295.832L196.834 300.747L168.027 260.073L171.257 255.234L219.039 267.477L215.758 272.392L175.801 261.688L175.599 261.991L200.114 295.832ZM186.366 283.682L199.588 263.871L203.702 266.713L190.48 286.525L186.366 283.682Z" fill="white"/>
<rect x="217" y="228" width="11" height="11" rx="5.5" fill="#D9D9D9"/>
<rect x="560" y="544" width="11" height="11" rx="5.5" fill="#D9D9D9"/>
<path d="M447 370.947C461.667 379.415 461.667 400.585 447 409.053L379.5 448.024C364.833 456.492 346.5 445.907 346.5 428.971L346.5 351.029C346.5 334.093 364.833 323.508 379.5 331.976L447 370.947Z" fill="#D9D9D9"/>
</svg>
