<svg width="1276" height="454" viewBox="0 0 1276 454" fill="none" xmlns="http://www.w3.org/2000/svg">
<g filter="url(#filter0_d_31_33)">
<mask id="path-1-inside-1_31_33" fill="white">
<path fill-rule="evenodd" clip-rule="evenodd" d="M455.251 54.5962C455.979 46.3357 462.897 40 471.189 40H784.811C793.103 40 800.021 46.3357 800.749 54.5962L814.999 216.387C816.642 235.038 843.487 236.174 846.7 217.728L870.12 83.2547C871.455 75.5927 878.105 70 885.883 70H1200C1208.84 70 1216 77.1634 1216 86V378C1216 386.837 1208.84 394 1200 394H835.027C825.093 394 817.56 385.042 819.265 375.255V375.255C820.288 369.379 815.765 364 809.801 364H450.001C442.051 364 436.024 371.168 437.388 379V379C438.752 386.832 432.724 394 424.774 394H56C47.1634 394 40 386.837 40 378V86C40 77.1634 47.1634 70 56 70H370.117C377.895 70 384.545 75.5927 385.88 83.2547L409.3 217.728C412.513 236.174 439.358 235.038 441.001 216.387L455.251 54.5962Z"/>
</mask>
<path fill-rule="evenodd" clip-rule="evenodd" d="M455.251 54.5962C455.979 46.3357 462.897 40 471.189 40H784.811C793.103 40 800.021 46.3357 800.749 54.5962L814.999 216.387C816.642 235.038 843.487 236.174 846.7 217.728L870.12 83.2547C871.455 75.5927 878.105 70 885.883 70H1200C1208.84 70 1216 77.1634 1216 86V378C1216 386.837 1208.84 394 1200 394H835.027C825.093 394 817.56 385.042 819.265 375.255V375.255C820.288 369.379 815.765 364 809.801 364H450.001C442.051 364 436.024 371.168 437.388 379V379C438.752 386.832 432.724 394 424.774 394H56C47.1634 394 40 386.837 40 378V86C40 77.1634 47.1634 70 56 70H370.117C377.895 70 384.545 75.5927 385.88 83.2547L409.3 217.728C412.513 236.174 439.358 235.038 441.001 216.387L455.251 54.5962Z" fill="white"/>
<path d="M870.12 83.2547L871.105 83.4263L871.105 83.4263L870.12 83.2547ZM409.3 217.728L408.315 217.9L409.3 217.728ZM385.88 83.2547L384.895 83.4263L385.88 83.2547ZM455.251 54.5962L456.247 54.684L455.251 54.5962ZM814.999 216.387L815.995 216.299L814.999 216.387ZM800.749 54.5962L799.753 54.6839L800.749 54.5962ZM784.811 39H471.189V41H784.811V39ZM815.995 216.299L801.745 54.5085L799.753 54.6839L814.003 216.475L815.995 216.299ZM847.685 217.9L871.105 83.4263L869.135 83.0832L845.715 217.557L847.685 217.9ZM871.105 83.4263C872.356 76.2432 878.591 71 885.883 71V69C877.619 69 870.553 74.9422 869.135 83.0832L871.105 83.4263ZM885.883 71H1200V69H885.883V71ZM1200 71C1208.28 71 1215 77.7157 1215 86H1217C1217 76.6112 1209.39 69 1200 69V71ZM1215 86V378H1217V86H1215ZM1215 378C1215 386.284 1208.28 393 1200 393V395C1209.39 395 1217 387.389 1217 378H1215ZM1200 393H835.027V395H1200V393ZM835.027 393C825.714 393 818.652 384.602 820.25 375.426L818.28 375.083C816.468 385.482 824.472 395 835.027 395V393ZM450.001 365H809.801V363H450.001V365ZM56 395H424.774V393H56V395ZM39 86V378H41V86H39ZM370.117 69H56V71H370.117V69ZM410.285 217.557L386.865 83.0831L384.895 83.4263L408.315 217.9L410.285 217.557ZM454.255 54.5085L440.005 216.299L441.997 216.475L456.247 54.684L454.255 54.5085ZM408.315 217.9C411.728 237.498 440.252 236.291 441.997 216.475L440.005 216.299C438.465 233.784 413.297 234.849 410.285 217.557L408.315 217.9ZM370.117 71C377.408 71 383.644 76.2431 384.895 83.4263L386.865 83.0831C385.447 74.9422 378.381 69 370.117 69V71ZM41 86C41 77.7157 47.7157 71 56 71V69C46.6112 69 39 76.6112 39 86H41ZM56 393C47.7157 393 41 386.284 41 378H39C39 387.389 46.6112 395 56 395V393ZM471.189 39C462.379 39 455.028 45.7317 454.255 54.5085L456.247 54.684C456.929 46.9397 463.415 41 471.189 41V39ZM450.001 363C441.431 363 434.932 370.728 436.402 379.172L438.373 378.828C437.115 371.609 442.672 365 450.001 365V363ZM436.402 379.172C437.66 386.391 432.103 393 424.774 393V395C433.345 395 439.843 387.272 438.373 378.828L436.402 379.172ZM814.003 216.475C815.748 236.291 844.272 237.498 847.685 217.9L845.715 217.557C842.703 234.85 817.535 233.784 815.995 216.299L814.003 216.475ZM820.25 375.426C821.38 368.939 816.386 363 809.801 363V365C815.144 365 819.196 369.819 818.28 375.083L820.25 375.426ZM784.811 41C792.585 41 799.071 46.9397 799.753 54.6839L801.745 54.5085C800.972 45.7317 793.621 39 784.811 39V41Z" fill="#D9D9D9" mask="url(#path-1-inside-1_31_33)"/>
</g>
<path d="M437.648 315.765L438.389 315.094L437.648 315.765ZM495.5 294L486.953 301.765L497.951 305.284L495.5 294ZM345.041 341.272C350.458 344.067 355.477 345.164 360.179 344.98C364.877 344.796 369.199 343.336 373.228 341.105C381.241 336.67 388.232 329.104 394.851 322.26C398.183 318.815 401.424 315.545 404.694 312.866C407.965 310.187 411.212 308.144 414.538 307.109C417.839 306.083 421.247 306.04 424.895 307.408C428.567 308.785 432.542 311.613 436.906 316.436L438.389 315.094C433.893 310.125 429.664 307.06 425.597 305.535C421.507 304.002 417.642 304.05 413.944 305.2C410.272 306.341 406.795 308.559 403.427 311.319C400.057 314.08 396.743 317.427 393.413 320.87C386.708 327.803 379.949 335.099 372.26 339.355C368.438 341.47 364.42 342.813 360.101 342.982C355.785 343.151 351.107 342.152 345.959 339.494L345.041 341.272ZM436.906 316.436C442.425 322.536 447.83 327.257 453.073 330.272C458.321 333.29 463.466 334.63 468.418 333.856C478.338 332.307 486.809 322.423 493.7 302.904L491.814 302.238C484.946 321.692 476.823 330.519 468.109 331.88C463.743 332.562 459.061 331.408 454.07 328.538C449.076 325.666 443.831 321.109 438.389 315.094L436.906 316.436Z" fill="#E03737"/>
<path d="M852.648 315.765L853.389 315.094L852.648 315.765ZM910.5 294L901.953 301.765L912.951 305.284L910.5 294ZM760.041 341.272C765.458 344.067 770.477 345.164 775.179 344.98C779.877 344.796 784.199 343.336 788.228 341.105C796.241 336.67 803.232 329.104 809.851 322.26C813.183 318.815 816.424 315.545 819.694 312.866C822.965 310.187 826.212 308.144 829.538 307.109C832.839 306.083 836.247 306.04 839.895 307.408C843.567 308.785 847.542 311.613 851.906 316.436L853.389 315.094C848.893 310.125 844.664 307.06 840.597 305.535C836.507 304.002 832.642 304.05 828.944 305.2C825.272 306.341 821.795 308.559 818.427 311.319C815.057 314.08 811.743 317.427 808.413 320.87C801.708 327.803 794.949 335.099 787.26 339.355C783.438 341.47 779.42 342.813 775.101 342.982C770.785 343.151 766.107 342.152 760.959 339.494L760.041 341.272ZM851.906 316.436C857.425 322.536 862.83 327.257 868.073 330.272C873.321 333.29 878.466 334.63 883.418 333.856C893.338 332.307 901.809 322.423 908.7 302.904L906.814 302.238C899.946 321.692 891.823 330.519 883.109 331.88C878.743 332.562 874.061 331.408 869.07 328.538C864.076 325.666 858.831 321.109 853.389 315.094L851.906 316.436Z" fill="#E03737"/>
<defs>
<filter id="filter0_d_31_33" x="0" y="0" width="1276" height="454" filterUnits="userSpaceOnUse" color-interpolation-filters="sRGB">
<feFlood flood-opacity="0" result="BackgroundImageFix"/>
<feColorMatrix in="SourceAlpha" type="matrix" values="0 0 0 0 0 0 0 0 0 0 0 0 0 0 0 0 0 0 127 0" result="hardAlpha"/>
<feOffset dx="10" dy="10"/>
<feGaussianBlur stdDeviation="25"/>
<feComposite in2="hardAlpha" operator="out"/>
<feColorMatrix type="matrix" values="0 0 0 0 0 0 0 0 0 0 0 0 0 0 0 0 0 0 0.05 0"/>
<feBlend mode="normal" in2="BackgroundImageFix" result="effect1_dropShadow_31_33"/>
<feBlend mode="normal" in="SourceGraphic" in2="effect1_dropShadow_31_33" result="shape"/>
</filter>
</defs>
</svg>
