<svg width="1240" height="1085" viewBox="0 0 1240 1085" fill="none" xmlns="http://www.w3.org/2000/svg">
<path fill-rule="evenodd" clip-rule="evenodd" d="M1240 50C1240 22.3858 1217.61 0 1190 0H522.688C503.53 0 488 15.5301 488 34.6875C488 53.8449 503.53 69.375 522.688 69.375H603H662.5C690.114 69.375 712.5 91.7608 712.5 119.375V161C712.5 188.614 690.114 211 662.5 211H538C510.386 211 488 233.386 488 261V333C488 360.614 465.614 383 438 383H393C365.386 383 343 405.386 343 433V480C343 507.614 320.614 530 293 530H50C22.3858 530 0 552.386 0 580V1035C0 1062.61 22.3858 1085 50 1085H570C597.614 1085 620 1062.61 620 1035V605C620 577.386 642.386 555 670 555H1190C1217.61 555 1240 532.614 1240 505V50Z" fill="#E03737"/>
</svg>
